<?xml version="1.0" encoding="UTF-8" standalone="no"?>
<!-- Created with Inkscape (http://www.inkscape.org/) -->

<svg
   xmlns:dc="http://purl.org/dc/elements/1.1/"
   xmlns:cc="http://creativecommons.org/ns#"
   xmlns:rdf="http://www.w3.org/1999/02/22-rdf-syntax-ns#"
   xmlns:svg="http://www.w3.org/2000/svg"
   xmlns="http://www.w3.org/2000/svg"
   xmlns:sodipodi="http://sodipodi.sourceforge.net/DTD/sodipodi-0.dtd"
   xmlns:inkscape="http://www.inkscape.org/namespaces/inkscape"
   width="160"
   height="64"
   viewBox="0 0 42.333332 16.933333"
   version="1.1"
   id="svg5152"
   inkscape:version="0.92.4 5da689c313, 2019-01-14"
   sodipodi:docname="currency.svg"
   inkscape:export-filename="/home/soe/Projekte/ldjam44/assets/currency.png"
   inkscape:export-xdpi="96"
   inkscape:export-ydpi="96">
  <defs
     id="defs5146" />
  <sodipodi:namedview
     id="base"
     pagecolor="#ffffff"
     bordercolor="#666666"
     borderopacity="1.0"
     inkscape:pageopacity="0.0"
     inkscape:pageshadow="2"
     inkscape:zoom="7.0454762"
     inkscape:cx="82.321278"
     inkscape:cy="24.264588"
     inkscape:document-units="px"
     inkscape:current-layer="layer1"
     showgrid="true"
     inkscape:window-width="1920"
     inkscape:window-height="1150"
     inkscape:window-x="0"
     inkscape:window-y="0"
     inkscape:window-maximized="1"
     units="px">
    <inkscape:grid
       type="xygrid"
       id="grid899" />
  </sodipodi:namedview>
  <metadata
     id="metadata5149">
    <rdf:RDF>
      <cc:Work
         rdf:about="">
        <dc:format>image/svg+xml</dc:format>
        <dc:type
           rdf:resource="http://purl.org/dc/dcmitype/StillImage" />
        <dc:title></dc:title>
      </cc:Work>
    </rdf:RDF>
  </metadata>
  <g
     inkscape:label="Layer 1"
     inkscape:groupmode="layer"
     id="layer1"
     transform="translate(0,-280.06667)">
    <ellipse
       style="opacity:1;vector-effect:none;fill:#ffffff;fill-opacity:1;fill-rule:nonzero;stroke:#000000;stroke-width:0.5;stroke-linecap:butt;stroke-linejoin:round;stroke-miterlimit:4;stroke-dasharray:none;stroke-dashoffset:0;stroke-opacity:1"
       id="path822"
       cx="26.787291"
       cy="232.51942"
       rx="0.23602261"
       ry="3.0735996"
       transform="rotate(15.867404)" />
    <ellipse
       transform="matrix(-0.96189701,0.27341203,0.27341203,0.96189701,0,0)"
       ry="3.0735996"
       rx="0.23602261"
       cy="214.73927"
       cx="89.340073"
       id="ellipse824"
       style="opacity:1;vector-effect:none;fill:#ffffff;fill-opacity:1;fill-rule:nonzero;stroke:#000000;stroke-width:0.5;stroke-linecap:butt;stroke-linejoin:round;stroke-miterlimit:4;stroke-dasharray:none;stroke-dashoffset:0;stroke-opacity:1" />
    <ellipse
       style="opacity:1;vector-effect:none;fill:#ffffff;fill-opacity:1;fill-rule:nonzero;stroke:#000000;stroke-width:0.49999997;stroke-linecap:butt;stroke-linejoin:round;stroke-miterlimit:4;stroke-dasharray:none;stroke-dashoffset:0;stroke-opacity:1"
       id="path5697"
       cx="-21.570368"
       cy="225.9724"
       rx="4.4767647"
       ry="4.6103997" />
    <ellipse
       style="opacity:1;vector-effect:none;fill:#ffffff;fill-opacity:1;fill-rule:nonzero;stroke:#000000;stroke-width:0.5;stroke-linecap:butt;stroke-linejoin:round;stroke-miterlimit:4;stroke-dasharray:none;stroke-dashoffset:0;stroke-opacity:1"
       id="path816"
       cx="-31.793434"
       cy="226.97466"
       rx="8.6862593"
       ry="6.0135641" />
    <ellipse
       style="opacity:1;vector-effect:none;fill:#ffffff;fill-opacity:1;fill-rule:nonzero;stroke:#000000;stroke-width:0.5;stroke-linecap:butt;stroke-linejoin:round;stroke-miterlimit:4;stroke-dasharray:none;stroke-dashoffset:0;stroke-opacity:1"
       id="path818"
       cx="-135.32256"
       cy="175.76132"
       rx="4.4099469"
       ry="5.7462945"
       transform="rotate(-29.283148)" />
    <ellipse
       transform="matrix(0.72766038,-0.68593759,0.66322489,0.74842017,0,0)"
       ry="4.5818028"
       rx="3.4507651"
       cy="137.15532"
       cx="-173.84486"
       id="ellipse820"
       style="opacity:1;vector-effect:none;fill:#ffffff;fill-opacity:1;fill-rule:nonzero;stroke:#000000;stroke-width:0.50011837;stroke-linecap:butt;stroke-linejoin:round;stroke-miterlimit:4;stroke-dasharray:none;stroke-dashoffset:0;stroke-opacity:1" />
    <ellipse
       style="opacity:1;vector-effect:none;fill:#000000;fill-opacity:1;fill-rule:nonzero;stroke:#000000;stroke-width:0.5;stroke-linecap:butt;stroke-linejoin:round;stroke-miterlimit:4;stroke-dasharray:none;stroke-dashoffset:0;stroke-opacity:1"
       id="path827"
       cx="-18.897684"
       cy="225.17058"
       rx="2.0713387"
       ry="2.6058779" />
    <ellipse
       style="opacity:1;vector-effect:none;fill:#ffffff;fill-opacity:1;fill-rule:nonzero;stroke:#000000;stroke-width:0.52811778;stroke-linecap:butt;stroke-linejoin:round;stroke-miterlimit:4;stroke-dasharray:none;stroke-dashoffset:0;stroke-opacity:1"
       id="ellipse844"
       cx="181.8136"
       cy="230.5312"
       rx="0.14844999"
       ry="1.7504658"
       transform="matrix(0.89738138,0.44125578,-0.79336872,0.60874139,0,0)" />
    <g
       id="g999"
       transform="matrix(0.24922473,0,0,0.24922473,-10.603441,260.38447)">
      <path
         inkscape:connector-curvature="0"
         id="ellipse846"
         d="m 55.703746,85.87954 a 5.7462943,4.4099469 60.716852 0 0 -1.719791,0.444418 5.7462943,4.4099469 60.716852 0 0 -1.92288,3.261299 4.5846362,3.4469998 50.752466 0 0 -1.779736,0.727088 4.5846362,3.4469998 50.752466 0 0 -0.136426,4.881872 8.6862591,6.013564 0 0 0 -1.768884,3.625619 8.6862591,6.013564 0 0 0 2.390551,4.138764 0.2360226,3.0735995 15.867404 0 0 -0.558622,2.8267 0.2360226,3.0735995 15.867404 0 0 0.968933,-2.55281 8.6862591,6.013564 0 0 0 5.884912,1.60093 8.6862591,6.013564 0 0 0 4.644161,-0.93379 3.0735995,0.2360226 74.132596 0 0 0.766361,1.88567 3.0735995,0.2360226 74.132596 0 0 -0.359667,-2.08256 8.6862591,6.013564 0 0 0 2.633948,-2.08824 4.4767645,4.6103997 0 0 0 2.538347,0.81338 4.4767645,4.6103997 0 0 0 4.476728,-4.610567 4.4767645,4.6103997 0 0 0 -3.661793,-4.529956 0.1329689,1.7517097 52.665918 0 0 1.148768,-0.816488 0.1329689,1.7517097 52.665918 0 0 1.25522,-1.131197 0.1329689,1.7517097 52.665918 0 0 -1.52187,0.999939 0.1329689,1.7517097 52.665918 0 0 -1.095023,0.914673 4.4767645,4.6103997 0 0 0 -0.60203,-0.04754 4.4767645,4.6103997 0 0 0 -3.531569,1.785937 8.6862591,6.013564 0 0 0 -2.305802,-1.356506 5.7462943,4.4099469 60.716852 0 0 -0.806152,-4.457093 5.7462943,4.4099469 60.716852 0 0 -4.937684,-3.29954 z"
         style="opacity:1;vector-effect:none;fill:#d4aa00;fill-opacity:1;fill-rule:nonzero;stroke:#000000;stroke-width:0.5;stroke-linecap:butt;stroke-linejoin:round;stroke-miterlimit:4;stroke-dasharray:none;stroke-dashoffset:0;stroke-opacity:1" />
      <ellipse
         style="opacity:1;vector-effect:none;fill:#000000;fill-opacity:1;fill-rule:nonzero;stroke:#000000;stroke-width:0.5;stroke-linecap:butt;stroke-linejoin:round;stroke-miterlimit:4;stroke-dasharray:none;stroke-dashoffset:0;stroke-opacity:1"
         id="ellipse858"
         cx="69.957787"
         cy="97.015572"
         rx="2.0713387"
         ry="2.6058779" />
    </g>
    <g
       id="g1003"
       transform="matrix(0.24922473,0,0,0.24922473,-3.093971,258.72762)">
      <path
         inkscape:connector-curvature="0"
         id="ellipse862"
         d="m 107.53314,91.337605 a 0.1329689,1.7517097 52.665918 0 0 -1.50947,1.002006 0.1329689,1.7517097 52.665918 0 0 -1.09502,0.914673 4.4767645,4.6103997 0 0 0 -0.60203,-0.04754 4.4767645,4.6103997 0 0 0 -3.53157,1.785937 8.6862591,6.013564 0 0 0 -6.691582,-2.18643 8.6862591,6.013564 0 0 0 -8.685773,6.013587 8.6862591,6.013564 0 0 0 0.612365,2.213302 3.4469998,4.5846362 39.247534 0 0 0.758611,3.40341 3.4469998,4.5846362 39.247534 0 0 0.554487,0.39894 0.2360226,3.0735995 15.867404 0 0 -0.09353,0.94981 0.2360226,3.0735995 15.867404 0 0 0.402558,-0.80873 3.4469998,4.5846362 39.247534 0 0 0.916223,0.18758 4.4099469,5.7462943 29.283148 0 0 1.922881,3.26078 4.4099469,5.7462943 29.283148 0 0 6.656959,-2.85512 4.4099469,5.7462943 29.283148 0 0 0.56379,-1.28778 8.6862591,6.013564 0 0 0 1.035595,-0.3824 3.0735995,0.2360226 74.132596 0 0 0.76636,1.88567 3.0735995,0.2360226 74.132596 0 0 -0.359667,-2.08256 8.6862591,6.013564 0 0 0 2.633943,-2.08824 4.4767645,4.6103997 0 0 0 2.53835,0.81338 4.4767645,4.6103997 0 0 0 4.47673,-4.610565 4.4767645,4.6103997 0 0 0 -3.6618,-4.529956 0.1329689,1.7517097 52.665918 0 0 1.14877,-0.816488 0.1329689,1.7517097 52.665918 0 0 1.25522,-1.131197 0.1329689,1.7517097 52.665918 0 0 -0.0124,-0.0021 z"
         style="opacity:1;vector-effect:none;fill:#d4aa00;fill-opacity:1;fill-rule:nonzero;stroke:#000000;stroke-width:0.5;stroke-linecap:butt;stroke-linejoin:round;stroke-miterlimit:4;stroke-dasharray:none;stroke-dashoffset:0;stroke-opacity:1" />
      <ellipse
         ry="2.6058779"
         rx="2.0713387"
         cy="97.015572"
         cx="106.99947"
         id="ellipse874"
         style="opacity:1;vector-effect:none;fill:#000000;fill-opacity:1;fill-rule:nonzero;stroke:#000000;stroke-width:0.5;stroke-linecap:butt;stroke-linejoin:round;stroke-miterlimit:4;stroke-dasharray:none;stroke-dashoffset:0;stroke-opacity:1" />
    </g>
    <g
       id="g1007"
       transform="matrix(0.24922473,0,0,0.24922473,-19.257866,259.58058)">
      <path
         inkscape:connector-curvature="0"
         id="ellipse879"
         d="m 139.28314,91.337605 a 0.1329689,1.7517097 52.665918 0 0 -1.50947,1.002006 0.1329689,1.7517097 52.665918 0 0 -1.09502,0.914673 4.4767645,4.6103997 0 0 0 -0.60203,-0.04754 4.4767645,4.6103997 0 0 0 -3.53157,1.785937 8.6862591,6.013564 0 0 0 -5.14749,-2.085661 5.7462943,4.4099469 14.30749 0 0 -1.25574,-0.449068 5.7462943,4.4099469 14.30749 0 0 -6.32881,2.041219 8.6862591,6.013564 0 0 0 -1.47846,1.320333 3.4469998,4.5846362 82.49043 0 0 -2.12184,3.198771 3.4469998,4.5846362 82.49043 0 0 1.92082,2.554885 8.6862591,6.013564 0 0 0 1.42472,1.38544 0.2360226,3.0735995 15.867404 0 0 -0.55863,2.8267 0.2360226,3.0735995 15.867404 0 0 0.96894,-2.55281 8.6862591,6.013564 0 0 0 5.88491,1.60093 8.6862591,6.013564 0 0 0 4.64416,-0.93379 3.0735995,0.2360226 74.132596 0 0 0.76636,1.88567 3.0735995,0.2360226 74.132596 0 0 -0.35967,-2.08256 8.6862591,6.013564 0 0 0 2.63395,-2.08824 4.4767645,4.6103997 0 0 0 2.53835,0.81338 4.4767645,4.6103997 0 0 0 4.47673,-4.610565 4.4767645,4.6103997 0 0 0 -3.6618,-4.529956 0.1329689,1.7517097 52.665918 0 0 1.14877,-0.816488 0.1329689,1.7517097 52.665918 0 0 1.25522,-1.131197 0.1329689,1.7517097 52.665918 0 0 -0.0124,-0.0021 z"
         style="opacity:1;vector-effect:none;fill:#d4aa00;fill-opacity:1;fill-rule:nonzero;stroke:#000000;stroke-width:0.5;stroke-linecap:butt;stroke-linejoin:round;stroke-miterlimit:4;stroke-dasharray:none;stroke-dashoffset:0;stroke-opacity:1" />
      <ellipse
         style="opacity:1;vector-effect:none;fill:#000000;fill-opacity:1;fill-rule:nonzero;stroke:#000000;stroke-width:0.5;stroke-linecap:butt;stroke-linejoin:round;stroke-miterlimit:4;stroke-dasharray:none;stroke-dashoffset:0;stroke-opacity:1"
         id="ellipse891"
         cx="138.74945"
         cy="97.015572"
         rx="2.0713387"
         ry="2.6058779" />
    </g>
    <g
       id="g897"
       transform="matrix(0.24922473,0,0,0.24922473,31.432017,274.01582)">
      <path
         id="ellipse913"
         transform="scale(0.26458333)"
         d="m 106.79297,239.78516 a 13.028031,17.327759 25.117315 0 0 -15.38672,11.94726 13.028031,17.327759 25.117315 0 0 -1.039062,3.0957 32.829956,22.728431 44.907574 0 0 -13.576172,5.02149 32.829956,22.728431 44.907574 0 0 -4.484375,18.32031 13.028031,17.327759 56.341251 0 0 -6.513672,2.6543 13.028031,17.327759 56.341251 0 0 -8.345703,20.35351 13.028031,17.327759 56.341251 0 0 13.365234,5.24219 21.718278,16.667516 84.837131 0 0 0.0957,1.86719 21.718278,16.667516 84.837131 0 0 18.554688,20.13086 21.718278,16.667516 84.837131 0 0 14.609382,-17.85742 32.829956,22.728431 44.907574 0 0 9.08593,0.45117 16.920055,17.425133 44.907574 0 0 4.62305,8.95117 16.920055,17.425133 44.907574 0 0 24.28516,-0.39648 16.920055,17.425133 44.907574 0 0 0.31836,-24.28711 16.920055,17.425133 44.907574 0 0 -14.21875,-4.64063 32.829956,22.728431 44.907574 0 0 -1.06446,-5.61133 16.667516,21.718278 86.621434 0 0 14.88477,-16.95507 16.667516,21.718278 86.621434 0 0 -22.66211,-15.35938 16.667516,21.718278 86.621434 0 0 -1.85938,0.18359 13.028031,17.327759 25.117315 0 0 -7.17187,-12.43945 13.028031,17.327759 25.117315 0 0 -3.5,-0.67187 z"
         style="opacity:1;vector-effect:none;fill:#d4aa00;fill-opacity:1;fill-rule:nonzero;stroke:#000000;stroke-width:1.88976371;stroke-linecap:butt;stroke-linejoin:round;stroke-miterlimit:4;stroke-dasharray:none;stroke-dashoffset:0;stroke-opacity:1"
         inkscape:connector-curvature="0" />
      <ellipse
         transform="rotate(77.992753)"
         style="opacity:1;vector-effect:none;fill:#000000;fill-opacity:1;fill-rule:nonzero;stroke:#000000;stroke-width:0.5;stroke-linecap:butt;stroke-linejoin:round;stroke-miterlimit:4;stroke-dasharray:none;stroke-dashoffset:0;stroke-opacity:1"
         id="ellipse921"
         cx="92.087975"
         cy="-14.836678"
         rx="2.0713387"
         ry="2.6058779" />
      <ellipse
         style="opacity:1;vector-effect:none;fill:#ffffff;fill-opacity:1;fill-rule:nonzero;stroke:#000000;stroke-width:0.52811778;stroke-linecap:butt;stroke-linejoin:round;stroke-miterlimit:4;stroke-dasharray:none;stroke-dashoffset:0;stroke-opacity:1"
         id="ellipse923"
         cx="11.825343"
         cy="-85.158463"
         rx="0.14844999"
         ry="1.7504658"
         transform="matrix(-0.57519869,0.81801373,-0.47821733,-0.87824153,0,0)" />
      <ellipse
         ry="2.6058779"
         rx="2.0713387"
         cy="79.838242"
         cx="-42.583134"
         id="ellipse925"
         style="opacity:1;vector-effect:none;fill:#000000;fill-opacity:1;fill-rule:nonzero;stroke:#000000;stroke-width:0.5;stroke-linecap:butt;stroke-linejoin:round;stroke-miterlimit:4;stroke-dasharray:none;stroke-dashoffset:0;stroke-opacity:1"
         transform="matrix(-0.99902398,-0.04417117,-0.04417117,0.99902398,0,0)" />
      <ellipse
         transform="matrix(-0.85148417,0.5243803,0.84752929,0.53074863,0,0)"
         ry="1.7504658"
         rx="0.14844999"
         cy="99.84967"
         cx="56.472652"
         id="ellipse927"
         style="opacity:1;vector-effect:none;fill:#ffffff;fill-opacity:1;fill-rule:nonzero;stroke:#000000;stroke-width:0.52811778;stroke-linecap:butt;stroke-linejoin:round;stroke-miterlimit:4;stroke-dasharray:none;stroke-dashoffset:0;stroke-opacity:1" />
    </g>
    <ellipse
       transform="rotate(44.907574)"
       style="opacity:1;vector-effect:none;fill:#ffffff;fill-opacity:1;fill-rule:nonzero;stroke:#000000;stroke-width:0.49999997;stroke-linecap:butt;stroke-linejoin:round;stroke-miterlimit:4;stroke-dasharray:none;stroke-dashoffset:0;stroke-opacity:1"
       id="ellipse933"
       cx="172.74397"
       cy="152.3589"
       rx="4.4767647"
       ry="4.6103997" />
    <ellipse
       transform="rotate(44.907574)"
       style="opacity:1;vector-effect:none;fill:#ffffff;fill-opacity:1;fill-rule:nonzero;stroke:#000000;stroke-width:0.5;stroke-linecap:butt;stroke-linejoin:round;stroke-miterlimit:4;stroke-dasharray:none;stroke-dashoffset:0;stroke-opacity:1"
       id="ellipse935"
       cx="162.5209"
       cy="153.36116"
       rx="8.6862593"
       ry="6.0135641" />
    <ellipse
       style="opacity:1;vector-effect:none;fill:#ffffff;fill-opacity:1;fill-rule:nonzero;stroke:#000000;stroke-width:0.5;stroke-linecap:butt;stroke-linejoin:round;stroke-miterlimit:4;stroke-dasharray:none;stroke-dashoffset:0;stroke-opacity:1"
       id="ellipse937"
       cx="220.07062"
       cy="0.77241701"
       rx="4.4099469"
       ry="5.7462945"
       transform="rotate(86.621434)" />
    <ellipse
       transform="matrix(0.9332331,0.35927146,-0.38781421,0.92173757,0,0)"
       ry="4.5818028"
       rx="3.4507651"
       cy="199.17123"
       cx="91.095718"
       id="ellipse939"
       style="opacity:1;vector-effect:none;fill:#ffffff;fill-opacity:1;fill-rule:nonzero;stroke:#000000;stroke-width:0.50011837;stroke-linecap:butt;stroke-linejoin:round;stroke-miterlimit:4;stroke-dasharray:none;stroke-dashoffset:0;stroke-opacity:1" />
    <ellipse
       transform="rotate(77.992753)"
       style="opacity:1;vector-effect:none;fill:#000000;fill-opacity:1;fill-rule:nonzero;stroke:#000000;stroke-width:0.5;stroke-linecap:butt;stroke-linejoin:round;stroke-miterlimit:4;stroke-dasharray:none;stroke-dashoffset:0;stroke-opacity:1"
       id="ellipse941"
       cx="233.2229"
       cy="35.252945"
       rx="2.0713387"
       ry="2.6058779" />
    <ellipse
       style="opacity:1;vector-effect:none;fill:#ffffff;fill-opacity:1;fill-rule:nonzero;stroke:#000000;stroke-width:0.52811778;stroke-linecap:butt;stroke-linejoin:round;stroke-miterlimit:4;stroke-dasharray:none;stroke-dashoffset:0;stroke-opacity:1"
       id="ellipse943"
       cx="110.27102"
       cy="-162.51483"
       rx="0.14844999"
       ry="1.7504658"
       transform="matrix(-0.57519869,0.81801373,-0.47821733,-0.87824153,0,0)" />
    <ellipse
       ry="2.6058779"
       rx="2.0713387"
       cy="229.02803"
       cx="-29.527617"
       id="ellipse945"
       style="opacity:1;vector-effect:none;fill:#000000;fill-opacity:1;fill-rule:nonzero;stroke:#000000;stroke-width:0.5;stroke-linecap:butt;stroke-linejoin:round;stroke-miterlimit:4;stroke-dasharray:none;stroke-dashoffset:0;stroke-opacity:1"
       transform="matrix(-0.99902398,-0.04417117,-0.04417117,0.99902398,0,0)" />
    <ellipse
       transform="matrix(-0.85148417,0.5243803,0.84752929,0.53074863,0,0)"
       ry="1.7504658"
       rx="0.14844999"
       cy="229.40009"
       cx="208.47833"
       id="ellipse947"
       style="opacity:1;vector-effect:none;fill:#ffffff;fill-opacity:1;fill-rule:nonzero;stroke:#000000;stroke-width:0.52811778;stroke-linecap:butt;stroke-linejoin:round;stroke-miterlimit:4;stroke-dasharray:none;stroke-dashoffset:0;stroke-opacity:1" />
    <ellipse
       transform="matrix(0.99594292,-0.08998717,-0.08998717,-0.99594292,0,0)"
       ry="5.7462945"
       rx="4.4099469"
       cy="-229.02357"
       cx="-17.15814"
       id="ellipse949"
       style="opacity:1;vector-effect:none;fill:#ffffff;fill-opacity:1;fill-rule:nonzero;stroke:#000000;stroke-width:0.5;stroke-linecap:butt;stroke-linejoin:round;stroke-miterlimit:4;stroke-dasharray:none;stroke-dashoffset:0;stroke-opacity:1" />
    <ellipse
       style="opacity:1;vector-effect:none;fill:#ffffff;fill-opacity:1;fill-rule:nonzero;stroke:#000000;stroke-width:0.50011837;stroke-linecap:butt;stroke-linejoin:round;stroke-miterlimit:4;stroke-dasharray:none;stroke-dashoffset:0;stroke-opacity:1"
       id="ellipse951"
       cx="192.60803"
       cy="-112.01221"
       rx="3.4507651"
       ry="4.5818028"
       transform="matrix(0.49389476,0.86952169,0.85391436,-0.52041356,0,0)" />
    <g
       id="g890"
       transform="matrix(0.24922473,0,0,0.24922473,21.284726,282.65702)">
      <path
         inkscape:connector-curvature="0"
         style="opacity:1;vector-effect:none;fill:#d4aa00;fill-opacity:1;fill-rule:nonzero;stroke:#000000;stroke-width:0.49999997;stroke-linecap:butt;stroke-linejoin:round;stroke-miterlimit:4;stroke-dasharray:none;stroke-dashoffset:0;stroke-opacity:1"
         d="M 46.426982,41.153049 A 4.5846362,3.4469998 19.78172 0 0 42.901068,37.393562 4.5846362,3.4469998 19.78172 0 0 42.059981,37.196 a 6.013564,8.6862591 39.571979 0 0 -1.656865,-3.45292 6.013564,8.6862591 39.571979 0 0 -4.936577,-0.730608 4.5846362,3.4469998 51.005656 0 0 -0.8595,-1.650637 4.5846362,3.4469998 51.005656 0 0 -5.567198,-1.697801 4.5846362,3.4469998 51.005656 0 0 -1.052156,3.649871 4.4099469,5.7462943 79.501536 0 0 -0.489532,0.07115 4.4099469,5.7462943 79.501536 0 0 -4.846704,5.383278 4.4099469,5.7462943 79.501536 0 0 5.063743,3.409296 6.013564,8.6862591 39.571979 0 0 0.10469,2.40467 4.6103997,4.4767645 39.571979 0 0 -2.244325,1.438111 4.6103997,4.4767645 39.571979 0 0 0.701944,6.387853 4.6103997,4.4767645 39.571979 0 0 6.405954,-0.51368 4.6103997,4.4767645 39.571979 0 0 0.872684,-3.859919 6.013564,8.6862591 39.571979 0 0 1.452042,-0.418476 5.7462943,4.4099469 81.285839 0 0 4.832807,3.504046 5.7462943,4.4099469 81.285839 0 0 3.488664,-6.34793 5.7462943,4.4099469 81.285839 0 0 -0.09411,-0.485311 4.5846362,3.4469998 19.78172 0 0 3.100558,-2.195389 4.5846362,3.4469998 19.78172 0 0 0.09088,-0.938559 z"
         id="path955" />
      <ellipse
         ry="2.6058779"
         rx="2.0713387"
         cy="-53.519173"
         cx="-7.8943677"
         id="ellipse957"
         style="opacity:1;vector-effect:none;fill:#000000;fill-opacity:1;fill-rule:nonzero;stroke:#000000;stroke-width:0.5;stroke-linecap:butt;stroke-linejoin:round;stroke-miterlimit:4;stroke-dasharray:none;stroke-dashoffset:0;stroke-opacity:1"
         transform="rotate(162.65716)" />
      <ellipse
         transform="matrix(-0.86795662,-0.49664001,0.82996719,-0.55781221,0,0)"
         ry="1.7504658"
         rx="0.14844999"
         cy="-32.785767"
         cx="-61.335178"
         id="ellipse959"
         style="opacity:1;vector-effect:none;fill:#ffffff;fill-opacity:1;fill-rule:nonzero;stroke:#000000;stroke-width:0.52811778;stroke-linecap:butt;stroke-linejoin:round;stroke-miterlimit:4;stroke-dasharray:none;stroke-dashoffset:0;stroke-opacity:1" />
      <ellipse
         transform="matrix(-0.04891862,-0.99880277,-0.99880277,0.04891862,0,0)"
         style="opacity:1;vector-effect:none;fill:#000000;fill-opacity:1;fill-rule:nonzero;stroke:#000000;stroke-width:0.5;stroke-linecap:butt;stroke-linejoin:round;stroke-miterlimit:4;stroke-dasharray:none;stroke-dashoffset:0;stroke-opacity:1"
         id="ellipse961"
         cx="-54.927639"
         cy="-26.653156"
         rx="2.0713387"
         ry="2.6058779" />
      <ellipse
         style="opacity:1;vector-effect:none;fill:#ffffff;fill-opacity:1;fill-rule:nonzero;stroke:#000000;stroke-width:0.52811778;stroke-linecap:butt;stroke-linejoin:round;stroke-miterlimit:4;stroke-dasharray:none;stroke-dashoffset:0;stroke-opacity:1"
         id="ellipse963"
         cx="-53.692081"
         cy="9.2720079"
         rx="0.14844999"
         ry="1.7504658"
         transform="matrix(-0.60128702,-0.79903311,-0.44963792,0.89321092,0,0)" />
    </g>
    <g
       id="g875"
       transform="matrix(0.24922473,0,0,0.24922473,-28.938374,285.68189)">
      <path
         style="opacity:1;vector-effect:none;fill:#d4aa00;fill-opacity:1;fill-rule:nonzero;stroke:#000000;stroke-width:0.5;stroke-linecap:butt;stroke-linejoin:round;stroke-miterlimit:4;stroke-dasharray:none;stroke-dashoffset:0;stroke-opacity:1"
         d="m 135.57194,18.599778 a 4.4099469,5.7462943 29.283148 0 1 1.71979,0.444418 4.4099469,5.7462943 29.283148 0 1 1.92288,3.261299 3.4469998,4.5846362 39.247534 0 1 1.77974,0.727088 3.4469998,4.5846362 39.247534 0 1 0.13643,4.881872 8.6862591,6.013564 0 0 1 1.76888,3.625619 8.6862591,6.013564 0 0 1 -2.39055,4.138764 3.0735995,0.2360226 74.132596 0 1 0.55862,2.8267 3.0735995,0.2360226 74.132596 0 1 -0.96893,-2.55281 8.6862591,6.013564 0 0 1 -5.88491,1.60093 8.6862591,6.013564 0 0 1 -4.64417,-0.93379 0.2360226,3.0735995 15.867404 0 1 -0.76636,1.88567 0.2360226,3.0735995 15.867404 0 1 0.35967,-2.08256 8.6862591,6.013564 0 0 1 -2.63395,-2.08824 4.4767645,4.6103997 0 0 1 -2.53834,0.81338 4.4767645,4.6103997 0 0 1 -4.47673,-4.610567 4.4767645,4.6103997 0 0 1 3.66179,-4.529956 1.7517097,0.1329689 37.334082 0 1 -1.14877,-0.816488 1.7517097,0.1329689 37.334082 0 1 -1.25522,-1.131197 1.7517097,0.1329689 37.334082 0 1 1.52187,0.999939 1.7517097,0.1329689 37.334082 0 1 1.09503,0.914673 4.4767645,4.6103997 0 0 1 0.60203,-0.04754 4.4767645,4.6103997 0 0 1 3.53156,1.785937 8.6862591,6.013564 0 0 1 2.30581,-1.356506 4.4099469,5.7462943 29.283148 0 1 0.80615,-4.457093 4.4099469,5.7462943 29.283148 0 1 4.93768,-3.29954 z"
         id="path965"
         inkscape:connector-curvature="0" />
      <ellipse
         transform="scale(-1,1)"
         ry="2.6058779"
         rx="2.0713387"
         cy="29.735809"
         cx="-121.3179"
         id="ellipse967"
         style="opacity:1;vector-effect:none;fill:#000000;fill-opacity:1;fill-rule:nonzero;stroke:#000000;stroke-width:0.5;stroke-linecap:butt;stroke-linejoin:round;stroke-miterlimit:4;stroke-dasharray:none;stroke-dashoffset:0;stroke-opacity:1" />
    </g>
    <g
       id="g879"
       transform="matrix(0.24922473,0,0,0.24922473,-2.3699339,283.88067)">
      <path
         style="opacity:1;vector-effect:none;fill:#d4aa00;fill-opacity:1;fill-rule:nonzero;stroke:#000000;stroke-width:0.5;stroke-linecap:butt;stroke-linejoin:round;stroke-miterlimit:4;stroke-dasharray:none;stroke-dashoffset:0;stroke-opacity:1"
         d="m 83.742547,24.057843 a 1.7517097,0.1329689 37.334082 0 1 1.50947,1.002006 1.7517097,0.1329689 37.334082 0 1 1.09502,0.914673 4.4767645,4.6103997 0 0 1 0.60203,-0.04754 4.4767645,4.6103997 0 0 1 3.53157,1.785937 8.6862591,6.013564 0 0 1 6.691582,-2.18643 8.6862591,6.013564 0 0 1 8.685771,6.013587 8.6862591,6.013564 0 0 1 -0.61236,2.213302 4.5846362,3.4469998 50.752466 0 1 -0.75861,3.40341 4.5846362,3.4469998 50.752466 0 1 -0.55449,0.39894 3.0735995,0.2360226 74.132596 0 1 0.0935,0.94981 3.0735995,0.2360226 74.132596 0 1 -0.40256,-0.80873 4.5846362,3.4469998 50.752466 0 1 -0.91622,0.18758 5.7462943,4.4099469 60.716852 0 1 -1.92288,3.26078 5.7462943,4.4099469 60.716852 0 1 -6.656962,-2.85512 5.7462943,4.4099469 60.716852 0 1 -0.56379,-1.28778 8.6862591,6.013564 0 0 1 -1.035595,-0.3824 0.2360226,3.0735995 15.867404 0 1 -0.76636,1.88567 0.2360226,3.0735995 15.867404 0 1 0.359667,-2.08256 8.6862591,6.013564 0 0 1 -2.633943,-2.08824 4.4767645,4.6103997 0 0 1 -2.53835,0.81338 4.4767645,4.6103997 0 0 1 -4.47673,-4.610565 4.4767645,4.6103997 0 0 1 3.6618,-4.529956 1.7517097,0.1329689 37.334082 0 1 -1.14877,-0.816488 1.7517097,0.1329689 37.334082 0 1 -1.25522,-1.131197 1.7517097,0.1329689 37.334082 0 1 0.0124,-0.0021 z"
         id="path969"
         inkscape:connector-curvature="0" />
      <ellipse
         transform="scale(-1,1)"
         style="opacity:1;vector-effect:none;fill:#000000;fill-opacity:1;fill-rule:nonzero;stroke:#000000;stroke-width:0.5;stroke-linecap:butt;stroke-linejoin:round;stroke-miterlimit:4;stroke-dasharray:none;stroke-dashoffset:0;stroke-opacity:1"
         id="ellipse971"
         cx="-84.276215"
         cy="29.735809"
         rx="2.0713387"
         ry="2.6058779" />
    </g>
    <g
       id="g883"
       transform="matrix(0.24922473,0,0,0.24922473,-3.2449938,284.77985)">
      <path
         style="opacity:1;vector-effect:none;fill:#d4aa00;fill-opacity:1;fill-rule:nonzero;stroke:#000000;stroke-width:0.5;stroke-linecap:butt;stroke-linejoin:round;stroke-miterlimit:4;stroke-dasharray:none;stroke-dashoffset:0;stroke-opacity:1"
         d="m 51.992547,24.057843 a 1.7517097,0.1329689 37.334082 0 1 1.50947,1.002006 1.7517097,0.1329689 37.334082 0 1 1.09502,0.914673 4.4767645,4.6103997 0 0 1 0.60203,-0.04754 4.4767645,4.6103997 0 0 1 3.53157,1.785937 8.6862591,6.013564 0 0 1 5.14749,-2.085661 4.4099469,5.7462943 75.69251 0 1 1.25574,-0.449068 4.4099469,5.7462943 75.69251 0 1 6.32881,2.041219 8.6862591,6.013564 0 0 1 1.47846,1.320333 4.5846362,3.4469998 7.50957 0 1 2.12184,3.198771 4.5846362,3.4469998 7.50957 0 1 -1.92082,2.554885 8.6862591,6.013564 0 0 1 -1.42472,1.38544 3.0735995,0.2360226 74.132596 0 1 0.55863,2.8267 3.0735995,0.2360226 74.132596 0 1 -0.96894,-2.55281 8.6862591,6.013564 0 0 1 -5.88491,1.60093 8.6862591,6.013564 0 0 1 -4.64416,-0.93379 0.2360226,3.0735995 15.867404 0 1 -0.76636,1.88567 0.2360226,3.0735995 15.867404 0 1 0.35967,-2.08256 8.6862591,6.013564 0 0 1 -2.63395,-2.08824 4.4767645,4.6103997 0 0 1 -2.53835,0.81338 4.4767645,4.6103997 0 0 1 -4.47673,-4.610565 4.4767645,4.6103997 0 0 1 3.6618,-4.529956 1.7517097,0.1329689 37.334082 0 1 -1.14877,-0.816488 1.7517097,0.1329689 37.334082 0 1 -1.25522,-1.131197 1.7517097,0.1329689 37.334082 0 1 0.0124,-0.0021 z"
         id="path973"
         inkscape:connector-curvature="0" />
      <ellipse
         transform="scale(-1,1)"
         ry="2.6058779"
         rx="2.0713387"
         cy="29.735809"
         cx="-52.526237"
         id="ellipse975"
         style="opacity:1;vector-effect:none;fill:#000000;fill-opacity:1;fill-rule:nonzero;stroke:#000000;stroke-width:0.5;stroke-linecap:butt;stroke-linejoin:round;stroke-miterlimit:4;stroke-dasharray:none;stroke-dashoffset:0;stroke-opacity:1" />
    </g>
    <g
       id="g871"
       transform="matrix(0.24922473,0,0,0.24922473,-2.7921391,272.61238)">
      <path
         inkscape:connector-curvature="0"
         style="opacity:1;vector-effect:none;fill:#d4aa00;fill-opacity:1;fill-rule:nonzero;stroke:#000000;stroke-width:0.49999997;stroke-linecap:butt;stroke-linejoin:round;stroke-miterlimit:4;stroke-dasharray:none;stroke-dashoffset:0;stroke-opacity:1"
         d="m 162.91624,58.815939 a 3.4469998,4.5846362 25.117315 0 0 4.07107,-3.161046 3.4469998,4.5846362 25.117315 0 0 0.27492,-0.81907 8.6862591,6.013564 44.907574 0 0 3.59203,-1.328603 8.6862591,6.013564 44.907574 0 0 1.18649,-4.847249 3.4469998,4.5846362 56.341251 0 0 1.72341,-0.702283 3.4469998,4.5846362 56.341251 0 0 2.20813,-5.3852 3.4469998,4.5846362 56.341251 0 0 -3.53622,-1.386996 5.7462943,4.4099469 84.837131 0 0 -0.0253,-0.494027 5.7462943,4.4099469 84.837131 0 0 -4.90926,-5.32629 5.7462943,4.4099469 84.837131 0 0 -3.8654,4.724776 8.6862591,6.013564 44.907574 0 0 -2.40398,-0.119372 4.4767645,4.6103997 44.907574 0 0 -1.22318,-2.368331 4.4767645,4.6103997 44.907574 0 0 -6.42545,0.104902 4.4767645,4.6103997 44.907574 0 0 -0.0842,6.425965 4.4767645,4.6103997 44.907574 0 0 3.76204,1.227833 8.6862591,6.013564 44.907574 0 0 0.28164,1.484664 4.4099469,5.7462943 86.621434 0 0 -3.93826,4.486029 4.4099469,5.7462943 86.621434 0 0 5.99601,4.063836 4.4099469,5.7462943 86.621434 0 0 0.49196,-0.04857 3.4469998,4.5846362 25.117315 0 0 1.89756,3.291271 3.4469998,4.5846362 25.117315 0 0 0.92604,0.177766 z"
         id="path977" />
      <ellipse
         ry="2.6058779"
         rx="2.0713387"
         cy="146.7184"
         cx="-67.266769"
         id="ellipse979"
         style="opacity:1;vector-effect:none;fill:#000000;fill-opacity:1;fill-rule:nonzero;stroke:#000000;stroke-width:0.5;stroke-linecap:butt;stroke-linejoin:round;stroke-miterlimit:4;stroke-dasharray:none;stroke-dashoffset:0;stroke-opacity:1"
         transform="rotate(-102.00725)" />
      <ellipse
         transform="matrix(0.57519869,-0.81801373,0.47821733,0.87824153,0,0)"
         ry="1.7504658"
         rx="0.14844999"
         cy="167.76067"
         cx="133.90762"
         id="ellipse981"
         style="opacity:1;vector-effect:none;fill:#ffffff;fill-opacity:1;fill-rule:nonzero;stroke:#000000;stroke-width:0.52811778;stroke-linecap:butt;stroke-linejoin:round;stroke-miterlimit:4;stroke-dasharray:none;stroke-dashoffset:0;stroke-opacity:1" />
      <ellipse
         transform="matrix(0.99902397,0.04417125,0.04417125,-0.99902397,0,0)"
         style="opacity:1;vector-effect:none;fill:#000000;fill-opacity:1;fill-rule:nonzero;stroke:#000000;stroke-width:0.5;stroke-linecap:butt;stroke-linejoin:round;stroke-miterlimit:4;stroke-dasharray:none;stroke-dashoffset:0;stroke-opacity:1"
         id="ellipse983"
         cx="153.80249"
         cy="-33.85722"
         rx="2.0713387"
         ry="2.6058779" />
      <ellipse
         style="opacity:1;vector-effect:none;fill:#ffffff;fill-opacity:1;fill-rule:nonzero;stroke:#000000;stroke-width:0.52811778;stroke-linecap:butt;stroke-linejoin:round;stroke-miterlimit:4;stroke-dasharray:none;stroke-dashoffset:0;stroke-opacity:1"
         id="ellipse985"
         cx="54.069637"
         cy="-128.12831"
         rx="0.14844999"
         ry="1.7504658"
         transform="matrix(0.85148417,-0.5243803,-0.84752929,-0.53074863,0,0)" />
    </g>
    <g
       id="g1014"
       transform="matrix(0.24922473,0,0,0.24922473,-9.6838003,264.03637)">
      <path
         id="path987"
         d="m 144.7449,81.106046 a 4.5846362,3.4469998 19.78172 0 0 3.52591,3.759487 4.5846362,3.4469998 19.78172 0 0 0.84109,0.197562 6.013564,8.6862591 39.571979 0 0 1.65686,3.45292 6.013564,8.6862591 39.571979 0 0 4.93658,0.730608 4.5846362,3.4469998 51.005656 0 0 0.8595,1.650637 4.5846362,3.4469998 51.005656 0 0 5.5672,1.697801 4.5846362,3.4469998 51.005656 0 0 1.05215,-3.649871 4.4099469,5.7462943 79.501536 0 0 0.48954,-0.07115 4.4099469,5.7462943 79.501536 0 0 4.8467,-5.383278 4.4099469,5.7462943 79.501536 0 0 -5.06374,-3.409296 6.013564,8.6862591 39.571979 0 0 -0.10469,-2.40467 4.6103997,4.4767645 39.571979 0 0 2.24432,-1.438111 4.6103997,4.4767645 39.571979 0 0 -0.70194,-6.387853 4.6103997,4.4767645 39.571979 0 0 -6.40596,0.51368 4.6103997,4.4767645 39.571979 0 0 -0.87268,3.859919 6.013564,8.6862591 39.571979 0 0 -1.45204,0.418476 5.7462943,4.4099469 81.285839 0 0 -4.83281,-3.504046 5.7462943,4.4099469 81.285839 0 0 -3.48866,6.34793 5.7462943,4.4099469 81.285839 0 0 0.0941,0.485311 4.5846362,3.4469998 19.78172 0 0 -3.10056,2.195389 4.5846362,3.4469998 19.78172 0 0 -0.0909,0.938559 z"
         style="opacity:1;vector-effect:none;fill:#d4aa00;fill-opacity:1;fill-rule:nonzero;stroke:#000000;stroke-width:0.49999997;stroke-linecap:butt;stroke-linejoin:round;stroke-miterlimit:4;stroke-dasharray:none;stroke-dashoffset:0;stroke-opacity:1"
         inkscape:connector-curvature="0" />
      <ellipse
         transform="rotate(-17.34284)"
         style="opacity:1;vector-effect:none;fill:#000000;fill-opacity:1;fill-rule:nonzero;stroke:#000000;stroke-width:0.5;stroke-linecap:butt;stroke-linejoin:round;stroke-miterlimit:4;stroke-dasharray:none;stroke-dashoffset:0;stroke-opacity:1"
         id="ellipse989"
         cx="138.14244"
         cy="120.16797"
         rx="2.0713387"
         ry="2.6058779" />
      <ellipse
         style="opacity:1;vector-effect:none;fill:#ffffff;fill-opacity:1;fill-rule:nonzero;stroke:#000000;stroke-width:0.52811778;stroke-linecap:butt;stroke-linejoin:round;stroke-miterlimit:4;stroke-dasharray:none;stroke-dashoffset:0;stroke-opacity:1"
         id="ellipse991"
         cx="170.83824"
         cy="-20.32193"
         rx="0.14844999"
         ry="1.7504658"
         transform="matrix(0.86795662,0.49664001,-0.82996719,0.55781221,0,0)" />
      <ellipse
         ry="2.6058779"
         rx="2.0713387"
         cy="158.3091"
         cx="76.536949"
         id="ellipse993"
         style="opacity:1;vector-effect:none;fill:#000000;fill-opacity:1;fill-rule:nonzero;stroke:#000000;stroke-width:0.5;stroke-linecap:butt;stroke-linejoin:round;stroke-miterlimit:4;stroke-dasharray:none;stroke-dashoffset:0;stroke-opacity:1"
         transform="matrix(0.04891863,0.99880277,0.99880277,-0.04891863,0,0)" />
      <ellipse
         transform="matrix(0.60128702,0.79903311,0.44963792,-0.89321092,0,0)"
         ry="1.7504658"
         rx="0.14844999"
         cy="97.674652"
         cx="198.13892"
         id="ellipse995"
         style="opacity:1;vector-effect:none;fill:#ffffff;fill-opacity:1;fill-rule:nonzero;stroke:#000000;stroke-width:0.52811778;stroke-linecap:butt;stroke-linejoin:round;stroke-miterlimit:4;stroke-dasharray:none;stroke-dashoffset:0;stroke-opacity:1" />
    </g>
  </g>
</svg>
